<?xml version="1.0" encoding="UTF-8" standalone="no"?>
<!-- Created with Inkscape (http://www.inkscape.org/) -->

<svg
   xmlns:dc="http://purl.org/dc/elements/1.1/"
   xmlns:cc="http://creativecommons.org/ns#"
   xmlns:rdf="http://www.w3.org/1999/02/22-rdf-syntax-ns#"
   xmlns:svg="http://www.w3.org/2000/svg"
   xmlns="http://www.w3.org/2000/svg"
   xmlns:sodipodi="http://sodipodi.sourceforge.net/DTD/sodipodi-0.dtd"
   xmlns:inkscape="http://www.inkscape.org/namespaces/inkscape"
   width="744.09448819"
   height="1052.3622047"
   id="svg2"
   version="1.1"
   inkscape:version="0.48.4 r9939"
   sodipodi:docname="car.svg">
  <defs
     id="defs4" />
  <sodipodi:namedview
     id="base"
     pagecolor="#ffffff"
     bordercolor="#666666"
     borderopacity="1.0"
     inkscape:pageopacity="0.0"
     inkscape:pageshadow="2"
     inkscape:zoom="0.35"
     inkscape:cx="236.73699"
     inkscape:cy="513.96812"
     inkscape:document-units="px"
     inkscape:current-layer="layer1"
     showgrid="false"
     showguides="true"
     inkscape:guide-bbox="true"
     inkscape:window-width="1280"
     inkscape:window-height="962"
     inkscape:window-x="-8"
     inkscape:window-y="-8"
     inkscape:window-maximized="1" />
  <metadata
     id="metadata7">
    <rdf:RDF>
      <cc:Work
         rdf:about="">
        <dc:format>image/svg+xml</dc:format>
        <dc:type
           rdf:resource="http://purl.org/dc/dcmitype/StillImage" />
        <dc:title></dc:title>
      </cc:Work>
    </rdf:RDF>
  </metadata>
  <g
     inkscape:label="Layer 1"
     inkscape:groupmode="layer"
     id="layer1">
    <path
       style="fill:#ffffff;fill-rule:evenodd;stroke:#000000;stroke-width:1.25232196px;stroke-linecap:butt;stroke-linejoin:miter;stroke-opacity:1"
       d="m 741.13493,563.87835 c -10.16466,99.6129 -0.7606,92.46201 -13.88774,153.21586 -11.14623,51.58598 -18.75362,157.31285 -20.26816,179.46385 -24.89963,0.0194 -50.44406,-0.22414 -65.02129,0.0398 -10.22159,0.18509 -33.89728,-0.0343 -57.60897,-0.4077 -15.78695,-0.24863 -19.74144,0.30241 -48.38657,0.0547 0.45602,-43.24941 0.57583,-106.79572 -22.46877,-119.31685 -34.9035,-18.96456 -17.89853,-12.55091 -142.18331,-13.32373 -114.31278,-0.71082 -92.03686,-9.63225 -135.83162,13.58194 -27.98745,14.83524 -22.14775,61.56106 -16.50259,118.6248 -43.83454,-0.26364 -29.79107,0.29966 -65.37435,-0.52043 -39.61313,-0.91296 -43.72354,1.5631 -82.838434,0.17709 C 56.342193,852.06883 44.151592,762.30477 25.505971,717.84638 7.4171075,674.71551 1.7418512,607.33899 3.0181146,540.05409 3.6445135,507.03027 18.980148,490.44424 45.775967,475.89813 c 16.248264,-8.82037 54.160635,-10.06043 53.552888,-29.11662 5.786925,-17.95626 -48.314001,8.12309 -35.448257,-40.89408 -1.064281,-43.48655 58.000202,22.85288 65.293672,-10.3069 14.99741,-23.72512 41.43217,-173.75566 112.11693,-173.6933 148.705,0.13121 122.19085,1.91197 259.88162,0.65807 98.82818,-0.9 98.74033,115.35291 122.48152,151.4195 12.80924,35.32549 63.51437,-23.23412 74.54755,20.45219 13.7112,46.36771 -38.1182,28.65202 -37.95976,44.73126 -4.2473,31.83488 25.27011,31.40124 31.77723,38.18178 29.43284,30.66963 53.22776,46.24912 49.11557,86.54832 z"
       id="path2985"
       inkscape:connector-curvature="0"
       sodipodi:nodetypes="sscsscssscscssscccsscccss" />
    <path
       style="fill:#ffffff;fill-opacity:1;stroke:#000000;stroke-width:1.25232196;stroke-opacity:1"
       d="m 615.63077,425.89827 c 9.86692,40.66486 -98.321,30.85161 -225.89857,30.72076 -122.51389,-0.12567 -238.66115,8.50052 -238.66115,-38.24421 0,-21.1212 42.20733,-155.79502 69.79434,-170.62312 33.46763,-17.98893 103.40505,-10.56663 158.65672,-10.56663 50.27957,0 108.42114,-11.10096 142.83531,8.99782 50.40039,29.43516 79.08028,121.22109 93.27335,179.71538 z"
       id="path3012"
       inkscape:connector-curvature="0"
       sodipodi:nodetypes="sssssss" />
    <path
       style="fill:none;stroke:#000000;stroke-width:1.25232196px;stroke-linecap:butt;stroke-linejoin:miter;stroke-opacity:1"
       d="m 165.10994,465.39639 c -26.76411,-0.9978 -97.926153,125.95854 -48.49798,124.64103 79.52079,-0.59588 184.52996,-0.1972 263.04827,0.0979 81.76558,0.30735 197.7009,2.53556 265.32458,-1.35185 53.28439,0.98211 -26.53171,-121.235 -54.87931,-120.87932 -145.14173,-0.20535 -342.88931,-1.25371 -424.99556,-2.5078 z"
       id="path3785"
       inkscape:connector-curvature="0"
       sodipodi:nodetypes="ccsccc" />
    <path
       style="fill:none;stroke:#000000;stroke-width:0.83511847px;stroke-linecap:butt;stroke-linejoin:miter;stroke-opacity:1"
       d="m 102.60146,710.86286 c 62.08149,-0.0432 63.78003,-95.61437 -1.05959,-96.92153 -76.54006,-1.54306 -63.840572,96.96665 1.05959,96.92153 z"
       id="path3785-7"
       inkscape:connector-curvature="0"
       sodipodi:nodetypes="sss" />
    <path
       style="fill:none;stroke:#000000;stroke-width:0.83511847px;stroke-linecap:butt;stroke-linejoin:miter;stroke-opacity:1"
       d="m 657.96103,719.17946 c 62.08149,-0.0432 63.78002,-95.61438 -1.05962,-96.92155 -76.54004,-1.54304 -63.84055,96.96665 1.05962,96.92155 z"
       id="path3785-7-4"
       inkscape:connector-curvature="0"
       sodipodi:nodetypes="sss" />
    <path
       style="fill:#ffff00;fill-opacity:1;stroke:#000000;stroke-width:1.78903139;stroke-opacity:1"
       d="m 83.898562,706.11813 c -17.83826,-6.2101 -31.439816,-24.7301 -32.76185,-44.60883 -0.968221,-14.55861 2.912207,-24.52994 13.156423,-33.80733 9.487897,-8.59244 19.323594,-11.75627 36.229765,-11.65392 34.02585,0.20599 55.47419,30.10877 44.82737,62.49729 -8.07963,24.57893 -35.1552,36.72748 -61.451708,27.57279 z"
       id="path3823"
       inkscape:connector-curvature="0" />
    <path
       style="fill:#ffff00;fill-opacity:1;stroke:#000000;stroke-width:1.78903139;stroke-opacity:1"
       d="m 643.08666,715.85372 c -8.44239,-2.38687 -18.56844,-8.96285 -24.60186,-15.97674 -22.44687,-26.09465 -13.36438,-64.25153 17.43266,-73.23707 37.30309,-10.88378 68.18631,10.78559 67.07989,47.06697 -0.92046,30.18324 -29.96228,50.61401 -59.91069,42.14684 z"
       id="path3825"
       inkscape:connector-curvature="0" />
    <path
       style="fill:#ececec;fill-opacity:1;stroke:#000000;stroke-width:1.78903139;stroke-opacity:1"
       d="m 229.51095,453.57718 c -47.10974,-3.70316 -71.02065,-12.9604 -75.6044,-29.27061 -5.41115,-19.2543 31.68427,-125.96653 56.61807,-162.87293 7.15338,-10.58825 14.63255,-14.99358 33.92625,-19.98303 9.41503,-2.43477 25.9708,-3.06055 102.37911,-3.86972 140.86819,-1.49181 141.47696,-1.48032 156.12457,2.94615 15.80574,4.77646 23.91007,9.61947 36.45943,21.78751 18.61751,18.05181 37.02503,49.67961 51.96875,89.2927 8.98943,23.8294 22.57368,70.76276 22.57368,77.99177 0,13.00476 -11.27311,19.33778 -41.4488,23.28515 -15.17427,1.98499 -50.00767,2.44237 -172.43283,2.26417 -84.37947,-0.12288 -161.1332,-0.82985 -170.56383,-1.57116 z"
       id="path3827"
       inkscape:connector-curvature="0" />
    <path
       style="fill:#333333;fill-opacity:1;stroke:#000000;stroke-width:1.78903139;stroke-opacity:1"
       d="m 296.58405,588.45429 -188.32144,-0.90297 -3.45008,-4.18636 c -7.167537,-8.69717 -2.50261,-32.01968 11.91322,-59.56089 16.09393,-30.74717 35.71419,-54.46943 46.47407,-56.19033 2.22297,-0.35553 99.47631,-0.009 216.11851,0.76955 154.79247,1.03349 213.53381,1.9772 217.47109,3.49373 13.81604,5.3216 45.96778,46.15256 57.40877,72.90596 2.90374,6.79005 5.69428,16.83942 6.2012,22.33192 0.80781,8.75265 0.37888,10.60632 -3.4721,15.00494 l -4.39378,5.01859 -54.93549,1.43381 c -30.21453,0.78859 -67.93082,1.28783 -83.81402,1.10941 -15.88319,-0.17842 -113.62319,-0.73073 -217.19995,-1.22736 z"
       id="path3829"
       inkscape:connector-curvature="0" />
    <path
       style="fill:#d45500;fill-opacity:1;stroke:#000000;stroke-width:1.78903139;stroke-opacity:1"
       d="m 81.578124,893.6585 c -9.847156,-1.09944 -9.859828,-1.10882 -12.258158,-9.08041 -1.320454,-4.3889 -5.626332,-22.34351 -9.568631,-39.89912 C 42.545917,768.06087 37.179081,747.12555 27.248186,717.88844 11.861167,672.58828 7.1418806,642.60867 4.7768805,575.13826 c -1.6206344,-46.23505 1.82828,-62.97592 16.1923445,-78.59672 10.680291,-11.61475 24.46195,-19.41501 46.496751,-26.31659 24.170057,-7.57042 31.442542,-12.24168 33.173754,-21.30822 1.49182,-7.81276 -1.998272,-11.15605 -11.805379,-11.30886 -9.460619,-0.14735 -18.24707,-3.7067 -22.250582,-9.01342 -3.080396,-4.08314 -3.363835,-6.31453 -2.22155,-17.48968 0.926237,-9.06155 2.332947,-13.8151 4.80784,-16.24664 4.060355,-3.98925 5.307593,-3.7583 26.188249,4.84925 16.489122,6.79725 27.367112,7.8205 31.658732,2.97802 3.08338,-3.47915 10.67533,-22.65636 19.48104,-49.20891 6.97302,-21.0263 17.67612,-49.04596 24.35907,-63.76954 13.04641,-28.74337 33.85865,-54.0318 50.78138,-61.70314 l 8.77486,-3.97781 142.58776,0.47608 c 97.63555,0.32599 145.43284,1.10672 151.6123,2.47649 25.11546,5.56721 45.13275,22.09728 59.22761,48.90952 4.56126,8.67674 13.99028,32.69146 20.95337,53.36601 12.03136,35.72294 18.58357,50.42782 24.68732,55.40476 3.85524,3.14352 17.51688,2.35477 32.29899,-1.86478 16.90282,-4.8249 22.82233,-4.64373 28.43459,0.87023 4.74121,4.65817 8.57177,16.14563 8.57177,25.70594 0,7.35494 -7.82121,14.96818 -18.19865,17.71476 -21.08254,5.57986 -20.54883,5.15142 -21.13437,16.96589 -0.71813,14.48985 3.76141,21.01871 19.50491,28.42832 17.36028,8.17051 48.63613,41.10925 56.42567,59.42575 4.67435,10.99134 5.17496,22.77894 2.4009,56.53299 -1.48288,18.04327 -3.22738,45.17467 -3.87664,60.292 -0.66666,15.52257 -3.0763,38.2918 -5.53615,52.31218 -7.48509,42.66312 -9.5541,56.03607 -12.34603,79.79824 -2.62031,22.30156 -10.02001,104.31777 -10.02001,111.05902 0,3.19484 -3.12657,3.31846 -83.92824,3.31846 l -83.92823,0 -0.004,-14.62967 c -0.008,-21.97334 -3.37169,-60.9657 -6.35051,-73.58513 -5.00641,-21.20586 -10.50085,-28.20469 -29.74406,-37.88719 l -11.7319,-5.90306 -111.90432,-1.39537 -111.90431,-1.39535 -17.14663,8.11835 c -9.43064,4.46509 -19.05313,9.8572 -21.38332,11.98244 -11.7657,10.73093 -15.66189,28.84131 -14.12203,65.64224 0.61875,14.78761 1.66435,31.47497 2.32351,37.083 l 1.19853,10.19645 -57.78397,0 c -31.78118,0 -60.119066,0.29576 -62.973075,0.65724 -2.854016,0.36149 -9.62492,0.16209 -15.04645,-0.44331 l 0,0 z M 680.86561,714.78518 c 10.95422,-5.45125 20.04264,-16.82448 23.51265,-29.42367 3.23899,-11.76045 1.16599,-29.29509 -4.71938,-39.91907 -9.23152,-16.66421 -22.89217,-23.80279 -45.41568,-23.73261 -25.14123,0.0783 -42.24581,10.67635 -48.43568,30.01084 -8.75753,27.35475 7.52724,58.01074 35.21084,66.28421 2.48817,0.7436 10.26682,1.4206 17.2859,1.50443 10.53633,0.12591 14.47086,-0.69802 22.56135,-4.72413 l 0,0 z m -557.99255,-6.84029 c 16.46114,-6.74503 27.17036,-24.1162 27.21322,-44.14192 0.0331,-15.49253 -4.22344,-27.63447 -12.69409,-36.21004 -10.76136,-10.89459 -18.10294,-13.4422 -38.7371,-13.4422 -16.644202,0 -18.803539,0.41055 -27.741893,5.27445 -11.512313,6.26455 -16.871758,12.71406 -21.036648,25.31534 -7.322344,22.15449 4.842143,50.02113 26.594944,60.9242 14.234348,7.13463 32.378397,8.02622 46.401567,2.28017 l 0,0 z m 511.28,-117.49676 c 16.7476,-1.00604 21.85872,-1.94283 24.78219,-4.5422 10.95178,-9.73762 4.15687,-37.85478 -16.94495,-70.11781 -19.34379,-29.57514 -37.10622,-46.73563 -50.40347,-48.69539 -3.08358,-0.45445 -101.55743,-1.28927 -218.83079,-1.85514 l -213.22426,-1.02884 -7.877,5.88702 c -14.77097,11.03942 -38.59981,48.0551 -47.5165,73.81207 -8.834568,25.51973 -7.249472,41.84225 4.4438,45.76001 4.77642,1.60032 67.06752,2.10813 255.39453,2.08212 136.99254,-0.019 258.57195,-0.60476 270.17645,-1.30184 l 0,0 z M 568.00153,456.47812 c 23.11609,-2.66972 39.75737,-7.69908 45.25816,-13.67801 5.53953,-6.02106 4.1031,-20.02765 -5.2897,-51.57977 -23.63646,-79.39924 -54.20249,-130.92691 -87.49883,-147.5039 -21.49685,-10.70247 -24.0737,-10.8498 -165.51909,-9.46317 -98.96712,0.97021 -110.53742,1.84992 -129.05094,9.8119 -9.31412,4.00566 -15.05909,9.71491 -23.23672,23.09218 -19.00448,31.08826 -49.88286,118.27701 -51.92315,146.61114 -0.74909,10.40282 -0.2998,13.33619 2.77435,18.11344 7.77716,12.0858 28.07604,19.71874 62.45852,23.48616 26.11243,2.86125 27.75325,2.89005 185.97584,3.2629 114.44022,0.26969 148.94957,-0.17775 166.05156,-2.15287 l 0,0 z"
       id="path3831"
       inkscape:connector-curvature="0" />
  </g>
</svg>
